<?xml version="1.0" standalone="no"?><!DOCTYPE svg PUBLIC "-//W3C//DTD SVG 1.1//EN" "http://www.w3.org/Graphics/SVG/1.1/DTD/svg11.dtd"><svg t="1544958765861" class="icon" style="" viewBox="0 0 1024 1024" version="1.1" xmlns="http://www.w3.org/2000/svg" p-id="1118" xmlns:xlink="http://www.w3.org/1999/xlink" width="200" height="200"><defs><style type="text/css"></style></defs><path d="M161.430637 854.04129c6.706253 6.706253 16.597976 9.053441 25.819073 6.035627l272.441519-90.869725c0 0 1.676563-0.670625 2.179532-0.838282 4.359064-1.84422 7.712191-5.197346 7.712191-5.197346l353.084208-353.419521c0.167656-0.335313 6.035627-6.873909 6.706253-7.712191 12.909537-15.256725 40.237517-52.644084 40.908142-104.282231 0.167656-33.363608-13.412506-71.253936-47.614395-105.288168-34.034233-34.369545-71.924561-47.949707-105.288168-47.782051-66.727215 0.838282-109.814889 46.273144-111.994421 47.782051L252.132705 545.888975c0 0-3.688439 4.023752-5.197346 7.712191-0.335313 0.838282-0.838282 2.179532-0.838282 2.179532L155.227353 828.389873C152.209539 837.443314 154.556727 847.335037 161.430637 854.04129zM230.840353 760.824377c0 0 11.735942-2.514845 19.783446 4.862033 7.544534 6.873909 7.544534 17.77157 7.544534 17.77157l-39.231579 13.077193L230.840353 760.824377zM285.161 597.862434l91.875663 40.405173 40.405173 92.043319-108.976607 36.381421c-3.856095-11.065317-10.394692-24.813135-21.460009-36.046109-12.071255-12.238911-26.657355-18.274539-38.896266-21.460009L285.161 597.862434zM459.858885 701.641696l-33.69892-76.786594 292.89559-293.230902 55.326585 55.326585L459.858885 701.641696zM640.927709 228.18025c0.167656-0.502969 35.54314-34.034233 76.451282-33.028295 20.454071 0.167656 43.087674 6.873909 69.745029 33.028295 26.154386 26.489698 32.692982 49.123302 33.028295 69.745029 0.335313 18.777508-6.706253 35.878452-14.418443 49.458614l-68.906747-68.906747c-4.694377-4.694377-11.065317-7.376878-17.77157-7.376878s-13.077193 2.682501-17.77157 7.376878L390.616825 589.479618l-76.786594-33.866576L640.927709 228.18025z" p-id="1119" fill="#ffffff"></path></svg>