<?xml version="1.0" standalone="no"?><!DOCTYPE svg PUBLIC "-//W3C//DTD SVG 1.1//EN" "http://www.w3.org/Graphics/SVG/1.1/DTD/svg11.dtd"><svg t="1544953320735" class="icon" style="" viewBox="0 0 1024 1024" version="1.1" xmlns="http://www.w3.org/2000/svg" p-id="7686" xmlns:xlink="http://www.w3.org/1999/xlink" width="200" height="200"><defs><style type="text/css"></style></defs><path d="M511.660774 922.883021 511.660774 922.883021c-31.445176 0-55.538921-20.462031-70.920236-35.857672-36.400025-36.399001-286.981107-338.052273-306.302151-361.325325-45.419446-45.914726-70.405513-106.513896-70.405513-170.808224 0-64.74663 25.348318-125.750005 71.366398-171.761945l6.472412-6.472412c46.004777-46.025243 107.195418-71.373561 172.283832-71.373561 65.074088 0 126.264729 25.348318 172.283832 71.373561 1.058099 1.058099 2.031263 2.192945 2.90926 3.403516 0.027629 0.007163 8.253988 10.223852 21.394263 10.223852 13.766538 0 19.947308-8.136308 20.6012-9.061376 1.169639-1.920746 2.102894-2.971681 3.702322-4.565992 46.01808-46.025243 107.209744-71.373561 172.283832-71.373561 65.087391 0 126.278031 25.348318 172.282808 71.373561l6.472412 6.472412c46.01808 46.010917 71.366398 107.014292 71.366398 171.761945 0 64.266699-24.972764 124.845403-70.350255 170.752965-19.279089 23.454178-262.608 319.510988-304.492946 361.380584C567.215044 902.419967 543.119253 922.883021 511.660774 922.883021zM314.154491 162.29841c-49.860595 0-96.728018 19.418258-131.971707 54.66911l-6.472412 6.472412c-35.244712 35.251875-54.662971 81.931011-54.662971 131.450844 0 49.51267 19.418258 96.198969 54.662971 131.450844 0.626263 0.6191 1.210571 1.274016 1.781576 1.948375 92.676749 111.656009 275.387048 330.250586 303.559691 358.424252 12.709463 12.709463 23.00904 19.153222 30.609135 19.153222 9.479909 0 21.895683-10.411117 30.636764-19.153222 32.586163-32.599466 211.536834-248.63373 301.598013-358.305549 0.597611-0.724501 1.224898-1.413186 1.87879-2.067079 35.243689-35.251875 54.662971-81.938174 54.662971-131.450844 0-49.51881-19.419282-96.198969-54.662971-131.450844l-6.472412-6.472412c-35.244712-35.250852-82.111113-54.66911-131.971707-54.66911-49.066509 0-95.253434 18.812461-130.301671 53.026704-7.002484 9.368368-27.866674 31.973202-66.285682 31.973202-36.83186 0-59.214636-23.48897-65.742307-31.451316C409.880693 181.306322 363.47171 162.29841 314.154491 162.29841z" p-id="7687" fill="#ffffff"></path><path d="M188.154799 338.38894c-1.252527 0-2.533706-0.166799-3.800559-0.514723-7.585769-2.088568-12.040221-9.93221-9.952676-17.525142 6.723122-24.484647 19.8767-47.013757 38.000476-65.129346l4.00829-4.00829c36.33044-36.337603 87.958284-51.057863 138.040936-39.378869 7.66968 1.788739 12.444427 9.451256 10.648524 17.120936-1.781576 7.662517-9.493212 12.416797-17.107633 10.648524-40.492226-9.423627-82.125439 2.442632-111.426789 31.764448l-4.00829 4.00829c-14.643512 14.636349-25.25008 32.80208-30.67872 52.532447C200.139761 334.234317 194.40413 338.38894 188.154799 338.38894z" p-id="7688" fill="#ffffff"></path><path d="M415.128207 275.54259c-3.647063 0-7.294127-1.391696-10.077519-4.176113-4.774747-4.774747-9.980305-9.165754-15.47853-13.063527-6.431479-4.551666-7.934716-13.446243-3.38305-19.869536 4.538363-6.431479 13.431917-7.948019 19.863397-3.38919 6.80601 4.822842 13.251815 10.258645 19.153222 16.168238 5.567809 5.567809 5.567809 14.58723 0 20.155039C422.422334 274.14987 418.77527 275.54259 415.128207 275.54259z" p-id="7689" fill="#ffffff"></path></svg>